<?xml version="1.0" encoding="utf-8"?>
<!-- Generator: Adobe Illustrator 25.2.1, SVG Export Plug-In . SVG Version: 6.00 Build 0)  -->
<svg version="1.1" id="Layer_2" xmlns="http://www.w3.org/2000/svg" xmlns:xlink="http://www.w3.org/1999/xlink" x="0px" y="0px"
	 viewBox="0 0 568.52 155.19" style="enable-background:new 0 0 568.52 155.19;" xml:space="preserve">
<style type="text/css">
	.st0{fill:#EEEEEF;}
	.st1{fill-rule:evenodd;clip-rule:evenodd;fill:#FFFFFF;}
	.st2{fill:#FFFFFF;}
	.st3{fill-rule:evenodd;clip-rule:evenodd;fill:#0C2E4B;}
	.st4{fill-rule:evenodd;clip-rule:evenodd;fill:#00A5B5;}
	.st5{fill-rule:evenodd;clip-rule:evenodd;fill:#EF7422;}
	.st6{fill-rule:evenodd;clip-rule:evenodd;fill:#218970;}
	.st7{fill-rule:evenodd;clip-rule:evenodd;fill:#BBD439;}
	.st8{fill-rule:evenodd;clip-rule:evenodd;fill:#FDDD00;}
	.st9{fill:#0C2E4B;}
	.st10{fill:#3050A0;}
	.st11{fill:#28303A;}
	.st12{fill:#AA2021;}
	.st13{fill:#24ABB6;}
	.st14{fill:none;stroke:#F4292D;stroke-width:6;stroke-miterlimit:10;}
	.st15{fill:#2F3843;}
	.st16{fill-rule:evenodd;clip-rule:evenodd;fill:#2F3843;}
	.st17{fill:#F4292D;}
</style>
<g>
	<path class="st2" d="M181.34,81.83h-1.8v8.2h-6.09V65.35h8.2c6.23,0,10.04,2.69,10.04,8.03C191.69,78.97,187.53,81.83,181.34,81.83
		z M181.27,69.95h-1.8v7.29h1.67c2.96,0,4.63-1.19,4.63-3.75C185.76,71.14,184.23,69.95,181.27,69.95z"/>
	<path class="st2" d="M201.6,65.25h6.64l9.16,24.03l-6.13,0.99l-1.97-5.38h-9.36l-1.77,5.14h-5.99L201.6,65.25z M201.53,80.13h6.13
		l-3.03-8.61L201.53,80.13z"/>
	<path class="st2" d="M230.81,70.53v19.51h-6.09V70.53h-7.49v-5.17h20.46l0.85,5.17H230.81z"/>
	<path class="st2" d="M243.24,90.03V65.35h6.09v24.68H243.24z"/>
	<path class="st2" d="M255.87,90.03V65.35h15.93v4.94h-9.94v4.66h7.63l0.78,4.87h-8.41v5.28h10.31v4.94H255.87z"/>
	<path class="st2" d="M293.8,90.03l-10.76-14.84v14.84h-5.65V65.35h5.89l10.11,13.89V65.35h5.65v24.68H293.8z"/>
	<path class="st2" d="M317.5,70.53v19.51h-6.09V70.53h-7.49v-5.17h20.46l0.85,5.17H317.5z"/>
	<path class="st2" d="M350.8,90.51c-7.46,0-12.32-5.17-12.32-12.77c0-7.66,4.9-12.83,12.39-12.83s12.32,5.14,12.32,12.77
		C363.19,85.27,358.32,90.51,350.8,90.51z M350.83,69.68c-3.92,0-6.23,3.13-6.23,8.03s2.31,8,6.23,8c3.95,0,6.26-3.1,6.26-8
		S354.74,69.68,350.83,69.68z"/>
	<path class="st2" d="M379.02,90.41c-6.33,0-10.69-3.27-10.69-10.11V65.35h6.09v14.88c0,3.2,1.6,5.07,4.66,5.07
		c3.13,0,4.7-1.84,4.7-5V65.35h6.09v14.88C389.88,87.1,385.32,90.41,379.02,90.41z"/>
	<path class="st2" d="M408.06,70.53v19.51h-6.09V70.53h-7.49v-5.17h20.46l0.85,5.17H408.06z"/>
	<path class="st2" d="M430.3,90.44c-7.69,0-12.43-4.9-12.43-12.7c0-7.66,4.94-12.8,12.7-12.8c2.79,0,5,0.58,6.91,1.6l-0.85,5.48
		c-1.6-1.12-3.44-2.01-5.75-2.01c-4.26,0-6.88,2.93-6.88,7.69c0,4.8,2.76,7.66,7.01,7.66c2.18,0,4.12-0.75,6.06-1.87l0.78,5.07
		C435.81,89.69,433.33,90.44,430.3,90.44z"/>
	<path class="st2" d="M453.62,90.51c-7.46,0-12.32-5.17-12.32-12.77c0-7.66,4.9-12.83,12.39-12.83s12.32,5.14,12.32,12.77
		C466.01,85.27,461.14,90.51,453.62,90.51z M453.65,69.68c-3.92,0-6.23,3.13-6.23,8.03s2.31,8,6.23,8c3.95,0,6.26-3.1,6.26-8
		S457.57,69.68,453.65,69.68z"/>
	<path class="st2" d="M494.72,90.03l-1.19-16.54l-5.31,16.58h-5.69l-5.34-16.58l-1.16,16.54h-5.34l1.94-24.68h7.8l5.45,17.06
		l5.45-17.06h7.63l1.94,24.68H494.72z"/>
	<path class="st2" d="M506.5,90.03V65.35h15.93v4.94h-9.94v4.66h7.62l0.78,4.87h-8.41v5.28h10.31v4.94H506.5z"/>
	<path class="st2" d="M535.85,90.3c-3.44,0-6.3-0.71-8.88-1.84l0.88-5.17c2.59,1.33,5.48,2.28,8.1,2.28c1.97,0,3.3-0.78,3.3-2.25
		c0-1.43-0.78-2.04-4.49-3.4c-5.14-1.87-7.35-3.47-7.35-7.56c0-4.73,3.81-7.29,8.78-7.29c3.27,0,5.41,0.61,7.59,1.63l-0.92,5.14
		c-2.21-1.29-4.63-2.01-6.64-2.01c-2.08,0-3.06,0.82-3.06,1.97c0,1.23,0.75,1.87,4.08,3.03c5.58,1.97,7.76,3.85,7.76,7.76
		C545.01,87.96,540.95,90.3,535.85,90.3z"/>
</g>
<g>
	<path class="st2" d="M58.53,69.66c-1.96,0-3.55,0.64-4.74,1.95c-1.19,1.31-1.78,3.48-1.78,6.5c0,3,0.59,5.15,1.77,6.46
		c1.18,1.3,2.8,1.96,4.83,1.96c2.1,0,3.72-0.64,4.86-1.93c1.14-1.28,1.73-3.58,1.73-6.9c0-2.8-0.6-4.84-1.8-6.13
		C62.2,70.29,60.58,69.66,58.53,69.66z"/>
	<path class="st2" d="M143.84,57.06h-0.68v1.64h0.64c0.66,0,1.06-0.26,1.06-0.82C144.86,57.34,144.5,57.06,143.84,57.06z"/>
	<path class="st2" d="M121.03,69.66c-1.97,0-3.54,0.64-4.73,1.95c-1.19,1.31-1.78,3.48-1.78,6.5c0,3,0.58,5.15,1.76,6.46
		c1.18,1.3,2.8,1.96,4.84,1.96c2.09,0,3.72-0.64,4.87-1.93c1.14-1.27,1.73-3.58,1.73-6.9c0-2.8-0.61-4.84-1.8-6.13
		C124.71,70.29,123.09,69.66,121.03,69.66z"/>
	<path class="st2" d="M143.9,54.5c-2.56,0-4.58,1.66-4.58,4.62c0,2.92,2.04,4.58,4.58,4.58c2.56,0,4.56-1.66,4.56-4.58
		C148.47,56.16,146.44,54.5,143.9,54.5z M145.28,61.88l-1.62-2.28h-0.48v2.2h-1.26v-5.74h2c1.36,0,2.2,0.6,2.2,1.72
		c0,0.84-0.48,1.36-1.18,1.6l1.66,2.26L145.28,61.88z"/>
	<path class="st2" d="M0,0v155.19h157.25V0H0z M39.78,70H25.52v5.71h11.41v5.71H25.52v11.41h-8.56V64.29h22.82V70z M73.08,86.36
		c-1.24,2.23-3.03,3.95-5.37,5.19c-2.35,1.23-5.27,1.85-8.77,1.85c-3.56,0-6.5-0.53-8.84-1.6c-2.32-1.08-4.21-2.76-5.66-5.07
		c-1.45-2.31-2.18-5.19-2.18-8.66c0-4.84,1.45-8.62,4.31-11.31c2.86-2.7,6.86-4.04,11.98-4.04c5.25,0,9.3,1.32,12.14,3.97
		c2.83,2.65,4.26,6.37,4.26,11.14C74.95,81.3,74.32,84.14,73.08,86.36z M102.55,70h-8.56v22.82h-8.56V70h-8.5v-5.65h25.62V70z
		 M135.58,86.36c-1.23,2.23-3.03,3.95-5.37,5.19c-2.35,1.23-5.26,1.85-8.76,1.85c-3.56,0-6.51-0.53-8.84-1.6
		c-2.33-1.07-4.22-2.75-5.67-5.07c-1.45-2.31-2.17-5.19-2.17-8.66c0-4.84,1.45-8.62,4.31-11.31c2.87-2.7,6.86-4.04,11.99-4.04
		c5.24,0,9.3,1.32,12.13,3.97c2.84,2.65,4.27,6.37,4.27,11.14C137.46,81.3,136.82,84.14,135.58,86.36z M143.9,64.3
		c-3.16,0-5.32-2.08-5.32-5.18c0-3.1,2.22-5.22,5.32-5.22c3.14,0,5.3,2.1,5.3,5.22C149.21,62.2,146.98,64.3,143.9,64.3z"/>
</g>
<g>
	<path class="st2" d="M292.16,132.36h3.46l6.71,16.97l-3.27,0.6l-1.77-4.61h-7.07l-1.62,4.44h-3.3L292.16,132.36z M291.2,142.64
		h5.11l-2.56-6.74L291.2,142.64z"/>
	<path class="st2" d="M322.98,149.76l-8.79-12.02v12.02h-3.03v-17.32h3.08l8.41,11.45v-11.45h3.04v17.32H322.98z"/>
	<path class="st2" d="M335.42,150.02c-3.75,0-6.52-2.05-6.52-6.71c0-4.18,2.6-6.74,6.09-6.74c3.99,0,5.81,2.94,5.81,6.57
		c0,0.26,0,0.57-0.02,0.76h-8.77c0.17,2.56,1.55,3.68,3.73,3.68c1.74,0,3.2-0.62,4.66-1.62l0.38,2.46
		C339.34,149.43,337.57,150.02,335.42,150.02z M332.08,141.9h5.66c-0.24-2.01-1.12-3.13-2.82-3.13
		C333.49,138.77,332.34,139.8,332.08,141.9z"/>
	<path class="st2" d="M348.83,149.98c-2.58,0-4.3-0.91-4.3-3.82v-6.74h-1.94v-2.56h1.94v-4.11l3.08-0.48v4.59h2.79l0.41,2.56h-3.2
		v6.21c0,1.05,0.5,1.62,1.79,1.62c0.41,0,0.81-0.02,1.12-0.1l0.38,2.6C350.4,149.88,349.78,149.98,348.83,149.98z"/>
	<path class="st2" d="M371.26,149.76v-7.53h-8v7.53h-3.27v-17.32h3.27v6.88h8v-6.88h3.27v17.32H371.26z"/>
	<path class="st2" d="M384.28,150.02c-3.75,0-6.52-2.05-6.52-6.71c0-4.18,2.61-6.74,6.09-6.74c3.99,0,5.81,2.94,5.81,6.57
		c0,0.26,0,0.57-0.02,0.76h-8.77c0.17,2.56,1.55,3.68,3.73,3.68c1.74,0,3.2-0.62,4.66-1.62l0.38,2.46
		C388.19,149.43,386.43,150.02,384.28,150.02z M380.93,141.9h5.66c-0.24-2.01-1.12-3.13-2.82-3.13
		C382.34,138.77,381.19,139.8,380.93,141.9z"/>
	<path class="st2" d="M400.62,149.76l-0.29-1.67c-1.12,1.08-2.53,1.94-4.54,1.94c-2.32,0-3.87-1.34-3.87-3.58
		c0-3.13,2.68-4.47,8.22-4.99v-0.41c0-1.41-0.88-1.94-2.39-1.94c-1.58,0-3.08,0.43-4.54,1.03l-0.38-2.48
		c1.58-0.62,3.18-1.05,5.3-1.05c3.44,0,5.11,1.24,5.11,4.3v8.87H400.62z M400.14,143.31c-4.13,0.45-5.11,1.58-5.11,2.82
		c0,0.93,0.67,1.53,1.77,1.53c1.2,0,2.34-0.55,3.35-1.46V143.31z"/>
	<path class="st2" d="M407.09,149.76v-18.83l3.13-0.5v19.33H407.09z"/>
	<path class="st2" d="M419.11,149.98c-2.58,0-4.3-0.91-4.3-3.82v-6.74h-1.94v-2.56h1.94v-4.11l3.08-0.48v4.59h2.79l0.41,2.56h-3.2
		v6.21c0,1.05,0.5,1.62,1.79,1.62c0.41,0,0.81-0.02,1.12-0.1l0.38,2.6C420.68,149.88,420.06,149.98,419.11,149.98z"/>
	<path class="st2" d="M432.25,149.76v-8.48c0-1.15-0.53-1.94-1.82-1.94c-1.12,0-2.25,0.67-3.3,1.67v8.75H424v-18.83l3.13-0.5v8.08
		c1.15-1,2.56-1.94,4.37-1.94c2.53,0,3.87,1.48,3.87,3.9v9.3H432.25z"/>
	<path class="st2" d="M443.87,141.42c-3.16,0-5.32-2.08-5.32-5.18c0-3.1,2.22-5.22,5.32-5.22c3.14,0,5.3,2.1,5.3,5.22
		C449.17,139.32,446.95,141.42,443.87,141.42z M443.87,131.62c-2.56,0-4.58,1.66-4.58,4.62c0,2.92,2.04,4.58,4.58,4.58
		c2.56,0,4.56-1.66,4.56-4.58C448.43,133.28,446.41,131.62,443.87,131.62z M445.25,139l-1.62-2.28h-0.48v2.2h-1.26v-5.74h2
		c1.36,0,2.2,0.6,2.2,1.72c0,0.84-0.48,1.36-1.18,1.6l1.66,2.26L445.25,139z M443.81,134.18h-0.68v1.64h0.64
		c0.66,0,1.06-0.26,1.06-0.82C444.83,134.46,444.47,134.18,443.81,134.18z"/>
	<path class="st2" d="M466.46,150.07c-5.21,0-8.51-3.54-8.51-8.94c0-5.38,3.39-8.98,8.63-8.98c2.05,0,3.63,0.45,4.97,1.27
		l-0.45,3.11c-1.22-0.88-2.65-1.55-4.42-1.55c-3.37,0-5.4,2.37-5.4,6.14c0,3.78,2.1,6.12,5.45,6.12c1.72,0,3.27-0.62,4.66-1.53
		l0.45,2.87C470.43,149.45,468.56,150.07,466.46,150.07z"/>
	<path class="st2" d="M480.2,150.02c-3.63,0-6.28-2.51-6.28-6.71s2.68-6.74,6.28-6.74c3.66,0,6.36,2.53,6.36,6.74
		S483.85,150.02,480.2,150.02z M480.2,139.13c-2.08,0-3.2,1.74-3.2,4.18c0,2.39,1.15,4.16,3.2,4.16c2.15,0,3.27-1.72,3.27-4.16
		C483.47,140.92,482.3,139.13,480.2,139.13z"/>
	<path class="st2" d="M505.74,149.76v-8.48c0-1.15-0.45-1.94-1.77-1.94c-1.1,0-2.15,0.67-3.18,1.67v8.75h-3.13v-8.48
		c0-1.15-0.48-1.94-1.77-1.94c-1.1,0-2.15,0.67-3.2,1.67v8.75h-3.13v-12.9h2.63l0.31,1.82c1.27-1.15,2.68-2.1,4.49-2.1
		c1.94,0,3.01,0.84,3.49,2.1c1.24-1.15,2.75-2.1,4.56-2.1c2.56,0,3.82,1.48,3.82,3.9v9.3H505.74z"/>
	<path class="st2" d="M518.83,149.9c-1.27,0-2.34-0.22-3.18-0.5v4.87l-3.13,0.45v-17.87h2.63l0.31,1.77
		c0.98-1.05,2.29-2.06,4.18-2.06c2.84,0,5.14,2.03,5.14,6.38C524.78,147.75,521.98,149.9,518.83,149.9z M518.85,139.34
		c-1.27,0-2.27,0.74-3.2,1.86v5.62c0.86,0.38,1.55,0.55,2.75,0.55c1.84,0,3.23-1.36,3.23-4.25
		C521.62,140.61,520.47,139.34,518.85,139.34z"/>
	<path class="st2" d="M535.74,149.76l-0.29-1.67c-1.12,1.08-2.53,1.94-4.54,1.94c-2.32,0-3.87-1.34-3.87-3.58
		c0-3.13,2.68-4.47,8.22-4.99v-0.41c0-1.41-0.88-1.94-2.39-1.94c-1.58,0-3.08,0.43-4.54,1.03l-0.38-2.48
		c1.58-0.62,3.18-1.05,5.3-1.05c3.44,0,5.11,1.24,5.11,4.3v8.87H535.74z M535.26,143.31c-4.13,0.45-5.11,1.58-5.11,2.82
		c0,0.93,0.67,1.53,1.77,1.53c1.2,0,2.34-0.55,3.35-1.46V143.31z"/>
	<path class="st2" d="M550.29,149.76v-8.48c0-1.15-0.53-1.94-1.82-1.94c-1.12,0-2.25,0.67-3.3,1.67v8.75h-3.13v-12.9h2.63l0.31,1.82
		c1.29-1.15,2.75-2.1,4.56-2.1c2.53,0,3.87,1.48,3.87,3.9v9.3H550.29z"/>
	<path class="st2" d="M563.26,150.64c-1.12,3.08-2.65,3.99-4.99,3.99c-0.64,0-0.98-0.07-1.27-0.14l-0.43-2.65
		c0.43,0.12,0.88,0.21,1.43,0.21c1.08,0,1.84-0.45,2.37-1.65l0.26-0.6l-4.92-12.71l3.25-0.43l3.25,9.27l3.13-9.08h3.18
		L563.26,150.64z"/>
</g>
</svg>
